<svg xmlns="http://www.w3.org/2000/svg" viewBox="143.21 103.04 142.66 20.84"><path d="M 198.79,104.04 c-.39,.05-.91,.56-1.32,1.35-.11,-.04-.22,-.10-.32,-.18-.12,-.09-.18,-.07-.30,.0-.27,.18-.48,.43-.70,.88-.09,.18 .08,.23 .17,.10 .10,-.14 .19,-.26 .35,-.39 .10,-.08 .17,-.06 .23,.01 .47,.58 1.65,.24 2.34,-.44 .07,-.07 .11,-.13 .16,-.21 .36,-.73-.03,-1.12-.52,-1.12-.03,.0-.07,.0-.10,.01 z M 199.15,104.97 c .01,.02 .01,.03-.01,.05-.30,.23-.72,.41-1.08,.45-.11,.01-.21,.01-.32,.0 .28,-.49 .58,-.77 .92,-.79 .25,-.01 .43,.10 .50,.30 z"/><path d="M 233.37,104.36 c-.38,.05-.89,.56-1.30,1.36-.11,-.04-.21,-.10-.32,-.18-.12,-.09-.18,-.07-.29,.0-.27,.18-.47,.43-.69,.88-.08,.18 .08,.23 .17,.10 .10,-.14 .18,-.26 .35,-.39 .09,-.08 .17,-.06 .23,.01 .46,.58 1.62,.24 2.30,-.45 .07,-.07 .11,-.13 .16,-.21 .36,-.73-.03,-1.13-.51,-1.13-.03,.0-.06,.0-.10,.01 z M 233.72,105.30 c .01,.02 .01,.03-.01,.05-.30,.24-.71,.41-1.07,.45-.11,.01-.21,.01-.32,.0 .28,-.49 .57,-.77 .90,-.79 .25,-.01 .43,.09 .50,.30 z"/><path d="M 220.40,104.36 c-.03,.0-.06,.0-.10,.01-.38,.05-.89,.56-1.30,1.36-.11,-.04-.22,-.10-.32,-.18-.12,-.09-.18,-.07-.29,.0-.27,.18-.47,.43-.69,.88-.08,.18 .08,.23 .17,.10 .10,-.14 .18,-.26 .35,-.39 .09,-.08 .17,-.06 .23,.01 .46,.58 1.62,.24 2.31,-.45 .07,-.07 .11,-.13 .15,-.21 .35,-.73-.03,-1.13-.51,-1.13 .0,.0 .0,.0 .0,.0 z M 220.65,105.29 c .01,.02 .0,.03-.01,.05-.30,.24-.71,.41-1.07,.45-.11,.01-.21,.01-.32,.0 .28,-.49 .57,-.77 .90,-.79 .25,-.01 .43,.09 .50,.30 z"/><path d="M 207.52,105.30 c-3.97,2.04-3.97,2.04-3.97,2.04-.11,.06-.14,.09-.17,.18-.10,.35-.10,.35-.10,.35-.08,.33-.04,.27 .27,.10 1.09,-.59 2.86,-1.46 3.98,-2.07 .15,-.08 .13,-.07 .16,-.20 .04,-.26 .04,-.26 .04,-.26 .05,-.30 .05,-.29-.22,-.14 z"/><path d="M 229.07,105.43 c-4.0,1.52-4.0,1.52-4.0,1.52-.12,.05-.15,.07-.19,.17-.14,.35-.14,.35-.14,.35-.13,.33-.07,.27 .27,.14 1.20,-.48 2.78,-1.04 4.02,-1.55 .17,-.07 .15,-.05 .19,-.18 .08,-.27 .08,-.27 .08,-.27 .08,-.30 .09,-.29-.21,-.17 z"/><path d="M 192.85,105.97 c-3.63,1.48-3.63,1.48-3.63,1.48-.13,.05-.17,.08-.21,.18-.15,.38-.15,.38-.15,.38-.13,.36-.07,.29 .30,.14 1.30,-.54 2.31,-.94 3.65,-1.51 .18,-.08 .16,-.06 .20,-.20 .08,-.29 .08,-.29 .08,-.29 .08,-.32 .09,-.31-.24,-.18 z"/><path d="M 214.79,106.14 c-3.32,1.48-3.32,1.48-3.32,1.48-.11,.05-.14,.08-.17,.17-.11,.34-.11,.34-.11,.34-.10,.33-.05,.26 .27,.11 1.12,-.53 2.19,-.94 3.34,-1.51 .16,-.08 .14,-.06 .17,-.19 .06,-.26 .06,-.26 .06,-.26 .06,-.29 .07,-.28-.22,-.15 z"/><path d="M 194.11,106.34 c-.14,.23-.28,.46-.41,.69-.05,.09-.02,.24 .01,.31 .08,.22 .18,.45 .30,.66 .24,1.41 .46,2.28 .64,3.27 .17,.98 .41,2.01 .54,2.87-.58,.49-1.99,.35-2.30,-.01-.20,-.24-.21,-.19-.25,.15-.05,.33-.13,.72 .14,1.01 .12,.13 .36,.23 .65,.30-.41,1.17-1.37,2.17-2.27,2.60-1.31,.63-2.65,.53-3.95,.17-.33,-.09-.52,.16-.08,.33 1.48,.55 3.18,1.02 4.35,.52 1.08,-.47 1.93,-1.89 2.39,-3.56 .47,.0 .87,-.09 1.17,-.23 .36,-.17 .49,-.43 .57,-.76 .17,-.64 .10,-1.40-.10,-2.44-.25,-1.35-.83,-4.01-.83,-4.01 .10,-.12 .19,-.24 .28,-.35 .05,-.06 .14,-.24 .02,-.39-.23,-.29-.46,-.66-.63,-1.10-.05,-.15-.10,-.19-.14,-.17-.04,.01-.08,.08-.11,.14 z"/><path d="M 197.22,106.76 c-.29,.50-.29,.90-.20,1.40 .41,2.30 1.13,4.73 1.25,7.88 .03,.45 .09,.22 .16,.03 .83,-2.20-.32,-5.05-1.01,-9.25-.06,-.33-.08,-.36-.21,-.06 z"/><path d="M 216.14,106.59 c-.04,.01-.08,.09-.11,.14-.13,.24-.27,.46-.40,.70-.05,.09-.01,.24 .01,.31 .08,.22 .19,.44 .31,.65 .04,.20 .07,.39 .11,.59 .24,1.27 .35,1.75 .64,3.28 .18,.98 .40,2.0 .54,2.86-.58,.49-1.99,.37-2.30,.02-.21,-.24-.21,-.18-.25,.16-.04,.33-.12,.72 .16,1.01 .12,.13 .37,.23 .65,.30-.39,1.17-1.34,2.18-2.24,2.63-1.31,.65-2.65,.56-3.95,.22-.33,-.09-.52,.17-.08,.33 1.49,.53 3.19,.99 4.36,.47 1.07,-.48 1.91,-1.91 2.35,-3.59 .47,.0 .87,-.10 1.17,-.25 .35,-.17 .48,-.44 .56,-.76 .16,-.64 .06,-1.40-.13,-2.44-.21,-1.15-.46,-2.19-.65,-3.27-.08,-.44-.17,-.88-.26,-1.34 .10,-.12 .19,-.24 .28,-.36 .05,-.06 .14,-.24 .01,-.39-.23,-.29-.47,-.65-.64,-1.09-.05,-.15-.10,-.18-.14,-.17 z"/><path d="M 219.42,107.03 c-.28,.52-.29,.94-.20,1.45 .41,2.39 1.13,4.91 1.25,8.18 .03,.46 .09,.23 .16,.03 .83,-2.28-.32,-5.24-1.01,-9.61-.05,-.34-.08,-.37-.20,-.06 z"/><path d="M 232.14,107.09 c-.28,.52-.29,.94-.20,1.46 .40,2.39 1.13,4.91 1.25,8.18 .03,.46 .09,.23 .16,.03 .83,-2.28-.32,-5.24-1.01,-9.61-.05,-.34-.08,-.37-.21,-.06 z"/><path d="M 228.55,107.68 c-.18,.33-.18,.33-.18,.33-.04,.08-.05,.13-.04,.24 .0,.0 .0,.0 .0,.0 .04,.58 .04,.58 .04,.58 .01,.06-.01,.06-.04,.09-.19,.13-.45,.18-.67,.18-.08,.0-.08,-.03-.08,-.08-.02,-.86-.02,-.86-.02,-.86 .0,-.14-.09,-.13-.14,-.04-.19,.31-.19,.31-.19,.31-.07,.12-.06,.18-.07,.31 .02,.55 .02,.55 .02,.55-.17,.12-.38,.21-.60,.20-.30,-.02-.35,-.11-.36,-.34 .0,-.15 .04,-.35 .08,-.53 .06,-.20-.07,-.24-.14,-.10-.16,.31-.28,.66-.30,.96-.02,.48 .16,.72 .61,.73 .23,.0 .52,-.12 .87,-.43 .33,.03 .71,-.04 1.07,-.28 .34,-.26 .32,-.44 .35,-.77 .01,-.30-.02,-.69-.06,-1.0-.01,-.17-.10,-.12-.15,-.04 z"/><path d="M 207.79,107.74 c-.39,.14-.77,.52-.90,1.02-.04,.13 .01,.20 .12,.11 .31,-.32 .54,-.44 .89,-.46 .32,-.02 .77,.04 1.13,.19-.30,.23-.92,.64-1.41,.90-.20,.11-.16,.26 .03,.22 .71,-.12 1.57,-.62 2.09,-1.10 .18,-.18 .27,-.45-.18,-.66-.48,-.23-1.25,-.42-1.77,-.23 z"/><path d="M 192.45,108.14 c-.17,.30-.17,.30-.17,.30-.04,.07-.04,.12-.04,.22 .0,.0 .0,.0 .0,.0 .04,.53 .04,.53 .04,.53 .0,.05-.01,.06-.04,.08-.18,.11-.41,.16-.61,.16-.07,.0-.07,-.03-.07,-.07-.02,-.78-.02,-.78-.02,-.78 .0,-.12-.08,-.12-.13,-.03-.17,.28-.17,.28-.17,.28-.06,.11-.06,.16-.06,.28 .01,.50 .01,.50 .01,.50-.16,.11-.35,.19-.54,.18-.28,-.02-.33,-.10-.33,-.31 .0,-.14 .04,-.31 .07,-.48 .06,-.18-.07,-.22-.13,-.09-.14,.28-.25,.59-.27,.87-.02,.44 .15,.65 .56,.66 .21,.0 .47,-.11 .79,-.39 .30,.03 .65,-.03 .97,-.25 .31,-.23 .30,-.40 .33,-.69 .0,-.27-.02,-.62-.05,-.91-.01,-.15-.09,-.11-.13,-.03 z"/><path d="M 277.38,108.38 c-.39,.14-.77,.52-.90,1.02-.04,.13 .01,.20 .12,.11 .31,-.32 .54,-.44 .89,-.46 .32,-.02 .77,.04 1.13,.19-.29,.23-.92,.64-1.41,.90-.20,.11-.16,.26 .03,.22 .71,-.12 1.57,-.62 2.09,-1.10 .18,-.18 .27,-.45-.18,-.66-.47,-.23-1.25,-.42-1.77,-.23 z"/><path d="M 214.63,108.37 c-.17,.30-.17,.30-.17,.30-.04,.07-.04,.12-.04,.22 .0,.0 .0,.0 .0,.0 .04,.53 .04,.53 .04,.53 .0,.05-.01,.06-.04,.08-.17,.11-.41,.17-.61,.16-.07,.0-.07,-.03-.07,-.08-.01,-.78-.01,-.78-.01,-.78 .0,-.12-.08,-.12-.13,-.03-.17,.28-.17,.28-.17,.28-.06,.11-.06,.16-.06,.28 .01,.50 .01,.50 .01,.50-.16,.10-.35,.19-.55,.18-.28,-.02-.32,-.10-.33,-.31 .0,-.14 .04,-.32 .07,-.48 .06,-.18-.07,-.22-.13,-.09-.15,.28-.25,.59-.27,.86-.02,.44 .15,.65 .56,.66 .21,-.01 .47,-.11 .79,-.39 .30,.03 .65,-.03 .98,-.25 .31,-.23 .29,-.40 .32,-.69 .01,-.27-.02,-.63-.05,-.91-.01,-.15-.09,-.11-.13,-.03 z"/><path d="M 203.38,109.03 c-.15,.42-.15,.42-.15,.42-.04,.13-.06,.12 .05,.29 .38,.55 .61,.97 .78,1.36 .22,.52 .32,1.0 .35,1.75 .0,.0-.02,.48 .20,-.03 .19,-.60 .14,-1.38-.13,-2.11-.22,-.59-.57,-1.16-.95,-1.68-.06,-.08-.13,-.10-.15,-.01 z"/><path d="M 281.26,110.11 c-.04,.02-.06,.08-.08,.16-.07,.27-.13,.83-.16,1.06-.01,.18-.01,.14 .11,.34 .09,.14 .30,.40 .45,.56 .12,.12 .15,.13 .26,.0 .74,.86 1.28,1.79 1.48,2.54 .11,.43 .11,.45-.16,.50-.46,.09-1.41,-.24-1.73,-.39 .04,-.12 .08,-.21 .13,-.34 .10,-.35-.15,-.39-.30,-.08-.18,.38-.33,.81-.56,1.26-.07,.13-.13,.15-.30,.11-.42,-.11-.74,-.20-1.06,-.37 .13,-.27 .24,-.55 .34,-.84 .11,-.30-.17,-.33-.28,-.08-.24,.51-.53,.91-.98,1.15-.66,.35-2.21,.56-2.44,-.17 .07,-.14 .13,-.24 .19,-.37 .14,-.29-.03,-.33-.37,-.20-1.94,.85-6.97,1.74-12.74,2.33-4.21,.43-16.84,1.42-22.45,-.34-.98,-.31-1.79,-.61-2.50,-1.46-.30,-.36-.56,-.26-.79,-.08-.34,.26-.84,.88-.93,1.18-.07,.25-.10,.76 .11,1.12-.77,.89-1.99,1.68-3.27,2.35-.14,.07-.30,.25 .03,.19 1.0,-.18 1.79,-.45 2.50,-.93 .47,-.32 .85,-.75 1.0,-1.34 .02,.01 .04,.03 .06,.05 .49,.25 1.42,.40 2.18,.51 .31,.04 .33,.04 .37,-.25 .08,-.50 .08,-.50 .08,-.50 2.64,1.04 8.10,1.40 13.36,1.26 5.96,-.16 11.91,-.69 17.38,-1.71 2.12,-.40 4.46,-.99 5.21,-1.34 .22,.97 .86,1.14 1.56,1.10 .63,-.04 1.23,-.22 1.68,-.62 .03,-.03 .05,-.05 .08,-.08 .31,.32 .77,.48 1.37,.59 .20,.03 .36,.05 .48,-.17 .21,-.40 .37,-.69 .51,-1.01 .76,.35 1.27,.62 1.88,.62 .70,.0 .69,-.49 .79,-1.06 .09,-.63-.02,-1.23-.19,-1.80-.36,-1.25-1.29,-2.36-2.16,-3.33-.08,-.10-.13,-.13-.17,-.11 z M 237.84,116.06 c .22,.50 .50,.90 .81,1.20-.65,-.12-1.34,-.26-1.79,-.51-.13,-.08-.13,-.14-.05,-.25 .16,-.21 .39,-.37 .62,-.53 .08,-.05 .16,-.09 .23,-.08 .07,.01 .12,.07 .17,.17 z"/><path d="M 229.78,110.45 c-.04,.03-.08,.12-.12,.28-.05,.20-.16,.54-.20,.76-.05,.14 .0,.28 .0,.37 .33,1.37 .84,2.64 1.29,3.62 .10,.23-.02,.32-.20,.31-.47,-.02-1.14,-.32-1.49,-.70-.23,-.25-.36,-.56-.48,-1.09-.18,-.80-.38,-1.69-.58,-2.85-.08,-.46-.18,-.50-.31,-.06-.04,.15-.09,.23-.14,.42-.05,.18-.06,.17-.03,.33 .62,3.11 .62,3.11 .62,3.11-.26,.78-.90,1.13-1.52,1.20-.63,.02-.88,-.40-.98,-.92-.05,-.25-.13,-.56-.17,-.95-.08,-.76-.17,-1.23-.20,-1.99-.01,-.21-.06,-.20-.14,-.02-.23,.56-.23,.56-.23,.56-.05,.13-.04,.15-.03,.26 .01,.08 .01,.17 .01,.25-.64,.19-1.49,.59-2.05,1.35-.28,.37-.43,.82-.56,1.37-.05,.20-.05,.29 .13,.33 .33,.07 .99,.06 1.35,.03 .26,-.02 .32,-.04 .48,-.16 .25,-.18 .58,-.50 .87,-.78 .03,.25 .07,.50 .11,.73 .12,.69 .64,1.11 1.20,1.10 .88,-.01 1.66,-.66 1.99,-1.54 .52,.85 1.39,1.13 1.99,1.15 .28,.01 .39,-.08 .51,-.31 .22,-.41 .32,-.87 .36,-1.23 .06,-.55-.06,-.99-.23,-1.38-.50,-1.10-.88,-2.27-1.07,-3.30-.04,-.21-.09,-.33-.16,-.28 z M 225.04,115.10 c-.66,.23-1.38,.32-2.10,.25-.06,-.01-.04,-.04 .0,-.08 .48,-.54 1.28,-.86 1.99,-1.20 .03,.35 .07,.69 .11,1.03 z"/><path d="M 207.88,110.92 c-.43,.25-.73,.69-.93,1.14-.09,.26 .02,.37 .23,.19 1.0,-.75 2.26,-.33 3.19,.26-1.70,.19-1.70,.19-1.70,.19-.51,.03-.83,.07-1.17,.21-.45,.18-.62,.57-.87,.92-.19,.25-.40,.48-.66,.64-.39,.23-.88,.29-1.43,.26-.40,-.02-.43,-.10-.61,-.33-.14,-.19-.34,-.48-.45,-.68-.11,-.24-.25,-.24-.29,-.02-.05,.30-.08,.47-.13,.78-.03,.16-.03,.26 .06,.42 .17,.27 .55,.70 .72,1.27-.83,1.85-3.61,3.40-7.48,4.40-3.65,.94-8.33,.78-11.25,-.03-1.40,-.36-2.68,-.83-3.75,-1.32-1.22,-.56-2.18,-1.17-3.14,-1.90-.40,-.30-.53,-.04-.25,.26 1.06,1.17 1.79,1.82 2.53,2.31 .65,.43 1.31,.72 2.21,1.06 5.07,1.93 10.26,1.65 13.97,.71 1.55,-.40 4.07,-1.21 5.55,-2.49 1.65,-1.32 1.89,-2.28 2.09,-3.28 .49,.02 .97,-.08 1.32,-.23 .30,-.13 .76,-.59 1.0,-1.02-.01,.30 .10,.41 .36,.60 .49,.35 1.79,.39 2.05,.31 .07,-.02 .14,-.09 .17,-.25 .11,-.54 .21,-1.25-.12,-1.89 1.31,-.34 3.13,-.10 4.54,.36 .23,.07 .24,.07 .36,-.11 .14,-.22 .28,-.45 .42,-.67 .12,-.18 .12,-.21-.09,-.23-1.46,-.09-3.15,-.83-4.37,-1.70-.40,-.28-.77,-.41-1.12,-.42-.35,-.01-.67,.09-.96,.26 z M 207.87,113.59 c .40,.05 .72,.40 .89,.82 .02,.04 .02,.07-.03,.06-.63,.02-1.24,-.12-1.62,-.50-.04,-.04-.04,-.07 .0,-.11 .22,-.20 .41,-.27 .59,-.28 .06,.0 .11,-.01 .17,.0 z"/><path d="M 185.13,111.15 c-.79,.05-1.52,.65-1.77,1.59-.09,.32 .06,.34 .22,.20 .39,-.34 1.10,-.57 1.66,-.53 .58,.04 1.51,.37 2.55,.70-.87,.25-2.02,.78-3.25,1.01-.77,.14-1.20,.13-1.74,-.19 .05,-.11 .07,-.22 .10,-.33 .08,-.27-.08,-.38-.35,-.14-1.04,.91-2.84,1.53-4.04,1.91-6.07,1.90-18.31,3.10-26.52,.53-.98,-.32-1.88,-.65-2.60,-1.51-.30,-.36-.57,-.24-.81,-.06-.34,.26-.84,.88-.93,1.18-.08,.25-.10,.76 .12,1.12-.77,.88-2.01,1.66-3.28,2.33-.14,.07-.28,.25 .05,.19 1.0,-.18 1.79,-.45 2.50,-.93 .47,-.32 .85,-.75 1.0,-1.34 .02,.01 .04,.03 .06,.05 .49,.25 1.41,.40 2.18,.51 .31,.04 .33,.04 .37,-.25 .08,-.48 .08,-.48 .08,-.48 2.62,1.10 7.92,1.94 13.18,1.84 3.96,-.08 9.19,-.55 13.10,-1.63 2.53,-.76 4.10,-1.29 5.43,-2.39 .30,.16 .65,.38 .99,.53 .83,.36 1.16,.16 1.77,-.06 .44,-.17 .89,-.36 1.34,-.54 1.45,-.60 3.01,-1.23 4.58,-.87 .21,.05 .23,.05 .34,-.16 .36,-.65 .36,-.65 .36,-.65 .09,-.17 .11,-.23-.09,-.22-1.26,.06-2.50,-.10-3.58,-.36-1.51,-.36-2.15,-1.10-3.0,-1.04 z M 149.09,115.01 c .22,.50 .48,.90 .79,1.20-.65,-.12-1.32,-.26-1.77,-.51-.13,-.08-.13,-.14-.05,-.25 .16,-.21 .39,-.37 .62,-.53 .08,-.05 .15,-.09 .22,-.08 .07,.01 .14,.07 .19,.17 z"/><path d="M 201.65,111.34 c-.52,.61-.52,.61-.52,.61-.09,.10-.11,.13 .01,.22 .68,.55 .68,.55 .68,.55 .16,.12 .14,.09 .26,-.03 .15,-.18 .30,-.36 .46,-.58 .10,-.13 .10,-.12-.03,-.23-.64,-.54-.64,-.54-.64,-.54-.12,-.10-.14,-.10-.22,.0 z"/><path d="M 189.89,115.02 c-4.15,1.64-4.15,1.64-4.15,1.64-.11,.05-.15,.07-.18,.16-.13,.34-.13,.34-.13,.34-.11,.32-.06,.26 .26,.13 1.14,-.48 2.99,-1.17 4.16,-1.67 .16,-.07 .14,-.05 .17,-.18 .07,-.26 .07,-.26 .07,-.26 .08,-.29 .08,-.28-.21,-.16 z"/><path d="M 183.19,116.22 c-.51,.67-.51,.67-.51,.67-.04,.05-.04,.08-.05,.11-.02,-.02-.04,-.04-.09,-.08-.68,-.54-.68,-.54-.68,-.54-.13,-.10-.15,-.11-.23,.0-.51,.67-.51,.67-.51,.67-.09,.11-.09,.15 .03,.23 .73,.56 .73,.56 .73,.56 .17,.12 .16,.09 .26,-.05 .14,-.20 .28,-.39 .44,-.62 .02,-.04 .05,-.07 .06,-.09 .01,.02 .03,.03 .06,.05 .73,.54 .73,.54 .73,.54 .17,.12 .15,.10 .26,-.03 .14,-.20 .29,-.40 .45,-.64 .10,-.15 .10,-.14-.05,-.25-.67,-.54-.67,-.54-.67,-.54-.06,-.05-.11,-.08-.14,-.08-.03,.0-.05,.04-.09,.09 z"/><path d="M 282.17,117.49 c-.50,.61-.50,.61-.50,.61-.09,.10-.10,.13 .01,.22 .67,.55 .67,.55 .67,.55 .15,.12 .14,.09 .25,-.03 .14,-.18 .29,-.36 .44,-.58 .10,-.13 .10,-.12-.03,-.23-.62,-.54-.62,-.54-.62,-.54-.11,-.10-.13,-.10-.22,.0 z"/><path d="M 225.13,117.86 c-3.24,1.56-3.24,1.56-3.24,1.56-.09,.04-.11,.07-.15,.16-.11,.35-.11,.35-.11,.35-.09,.33-.06,.27 .20,.14 .89,-.46 2.33,-1.11 3.25,-1.59 .13,-.07 .11,-.05 .14,-.18 .06,-.27 .06,-.27 .06,-.27 .06,-.30 .07,-.29-.16,-.17 z"/><path d="M 151.22,118.60 c-3.56,1.33-3.56,1.33-3.56,1.33-.09,.04-.13,.06-.16,.15-.13,.32-.13,.32-.13,.32-.11,.31-.07,.26 .21,.14 .98,-.39 2.57,-.94 3.58,-1.36 .14,-.06 .12,-.04 .16,-.16 .07,-.25 .07,-.25 .07,-.25 .08,-.28 .09,-.27-.16,-.17 z"/><path d="M 284.61,118.93 c-3.81,1.32-3.81,1.32-3.81,1.32-.10,.04-.14,.06-.18,.16-.15,.35-.15,.35-.15,.35-.13,.33-.08,.27 .22,.16 1.05,-.39 2.74,-.94 3.83,-1.35 .15,-.06 .13,-.04 .17,-.18 .08,-.27 .08,-.27 .08,-.27 .09,-.30 .10,-.29-.17,-.19 z"/><path d="M 205.53,119.46 c-4.29,1.85-4.29,1.85-4.29,1.85-.11,.05-.15,.08-.19,.18-.13,.36-.13,.36-.13,.36-.11,.34-.06,.28 .28,.12 1.18,-.54 3.09,-1.31 4.30,-1.88 .17,-.08 .15,-.06 .18,-.19 .06,-.27 .06,-.27 .06,-.27 .07,-.30 .08,-.30-.22,-.16 z"/><path d="M 239.88,119.50 c-3.35,1.50-3.35,1.50-3.35,1.50-.09,.04-.12,.07-.15,.15-.11,.33-.11,.33-.11,.33-.09,.31-.05,.25 .21,.13 .92,-.44 2.41,-1.06 3.37,-1.53 .13,-.06 .11,-.05 .14,-.17 .06,-.25 .06,-.25 .06,-.25 .06,-.28 .07,-.27-.17,-.16 z"/></svg>